<svg width="40" height="40" viewBox="0 0 40 40" fill="none"
     xmlns="http://www.w3.org/2000/svg">
    <g clip-path="url(#clip0)">
        <path d="M39.3333 18.6667H32.6494C33.0905 18.0931 33.3307 17.3903 33.3333 16.6667C33.3376 15.2288 32.4167 13.9515 31.0511 13.501C29.6859 13.0508 28.1855 13.5293 27.3333 14.6875C27.2386 14.5527 27.1344 14.4251 27.0215 14.3053C26.5586 13.846 25.972 13.5313 25.3333 13.4001V11.3333C25.3333 10.9652 25.0348 10.6667 24.6667 10.6667H22.6667V6C22.6631 2.68783 19.9788 0.00358516 16.6667 4.43027e-06H15.3333C14.5319 -0.000972136 13.7383 0.15951 13 0.47201C12.2617 0.15951 11.4681 -0.000972136 10.6667 4.43027e-06H9.33333C6.02116 0.00358516 3.33691 2.68783 3.33333 6V10.6667H0.666667C0.298503 10.6667 0 10.9652 0 11.3333V39.3333C0 39.7015 0.298503 40 0.666667 40H38C38.3682 40 38.6667 39.7015 38.6667 39.3333V25.3333H39.3333C39.7015 25.3333 40 25.0348 40 24.6667V19.3333C40 18.9652 39.7015 18.6667 39.3333 18.6667ZM30 14.6667C31.1045 14.6667 32 15.5622 32 16.6667C32 17.7712 31.1045 18.6667 30 18.6667H28V16.6667C28 15.5622 28.8955 14.6667 30 14.6667ZM26.0788 15.248C26.4544 15.6247 26.666 16.1348 26.6667 16.6667V18.6667H25.3333V14.7887C25.6123 14.8854 25.8669 15.0423 26.0788 15.248ZM15.3333 1.33334H16.6667C19.2428 1.33627 21.3304 3.42383 21.3333 6V10.6667H16.6667V6C16.6667 4.22754 15.8812 2.54623 14.5221 1.40853C14.7897 1.3597 15.0612 1.33464 15.3333 1.33334ZM13 1.96452C14.4421 2.7972 15.3311 4.33497 15.3333 6V10.6667H10.6667V6C10.6689 4.33497 11.5579 2.7972 13 1.96452ZM4.66667 6C4.6696 3.42383 6.75716 1.33627 9.33333 1.33334H10.6667C10.9388 1.33464 11.2103 1.3597 11.4779 1.40853C10.1188 2.54623 9.33333 4.22754 9.33333 6V10.6667H4.66667V6ZM5.91016 12L4 14.292L2.08984 12H5.91016ZM2.08984 38.6667L4 36.3747L5.91016 38.6667H2.08984ZM24 30.6667V38.6667H8V30.6667H6.66667V37.4919L4.5127 34.9066C4.38184 34.7617 4.19531 34.6787 4 34.6787C3.80469 34.6787 3.61816 34.7617 3.4873 34.9066L1.33333 37.4919V13.1748L3.4873 15.7601C3.61393 15.9124 3.80176 16.0007 4 16.0007C4.19824 16.0007 4.38607 15.9124 4.5127 15.7601L6.66667 13.1748V20H8V12H24V20H30V24H26V25.3333H30V38.6667H25.3333V30.6667H24ZM37.3333 38.6667H31.3333V25.3333H37.3333V38.6667ZM38.6667 24H31.3333V20H38.6667V24Z" fill="#008060"></path>
        <path d="M11.5286 28.8621L19.5289 20.8621L20.4716 21.8048L12.4716 29.8051L11.5286 28.8621Z" fill="#008060"></path>
        <path d="M20.6667 28C20.6667 26.8955 19.7712 26 18.6667 26C17.5623 26 16.6667 26.8955 16.6667 28C16.6667 29.1045 17.5623 30 18.6667 30C19.7712 30 20.6667 29.1045 20.6667 28ZM18.0001 28C18.0001 27.6318 18.2986 27.3333 18.6667 27.3333C19.0349 27.3333 19.3334 27.6318 19.3334 28C19.3334 28.3682 19.0349 28.6667 18.6667 28.6667C18.2986 28.6667 18.0001 28.3682 18.0001 28Z" fill="#008060"></path>
        <path d="M11.3333 22.6667C11.3333 23.7712 12.2288 24.6667 13.3333 24.6667C14.4377 24.6667 15.3333 23.7712 15.3333 22.6667C15.3333 21.5623 14.4377 20.6667 13.3333 20.6667C12.2288 20.6667 11.3333 21.5623 11.3333 22.6667ZM13.9999 22.6667C13.9999 23.0349 13.7014 23.3334 13.3333 23.3334C12.9651 23.3334 12.6666 23.0349 12.6666 22.6667C12.6666 22.2986 12.9651 22.0001 13.3333 22.0001C13.7014 22.0001 13.9999 22.2986 13.9999 22.6667Z" fill="#008060"></path>
        <path d="M7.4563 23.7341L7.80135 22.446L9.08911 22.7911L8.74406 24.0792L7.4563 23.7341Z" fill="#008060"></path>
        <path d="M7.33325 24.6667H8.66658V26.0001H7.33325V24.6667Z" fill="#008060"></path>
        <path d="M7.45605 26.9327L8.74382 26.5876L9.08887 27.8754L7.80111 28.2205L7.45605 26.9327Z" fill="#008060"></path>
        <path d="M15.3333 16.6667H16.6666V18.0001H15.3333V16.6667Z" fill="#008060"></path>
        <path d="M13.1191 17.1322L14.4069 16.7869L14.7523 18.075L13.4642 18.4203L13.1191 17.1322Z" fill="#008060"></path>
        <path d="M11.0891 18.1615L12.2441 17.4949L12.9107 18.6495L11.7561 19.3162L11.0891 18.1615Z" fill="#008060"></path>
        <path d="M9.40063 19.6764L10.3437 18.7334L11.2864 19.6764L10.3437 20.6191L9.40063 19.6764Z" fill="#008060"></path>
        <path d="M8.16113 21.5777L8.8278 20.4231L9.98242 21.0898L9.31576 22.2444L8.16113 21.5777Z" fill="#008060"></path>
        <path d="M8.16089 29.0893L9.31584 28.4226L9.98218 29.5776L8.82756 30.2439L8.16089 29.0893Z" fill="#008060"></path>
        <path d="M9.40063 30.9898L10.3433 30.0471L11.2861 30.9898L10.3433 31.9329L9.40063 30.9898Z" fill="#008060"></path>
        <path d="M11.0889 32.5059L11.7555 31.3513L12.9102 32.018L12.2438 33.1726L11.0889 32.5059Z" fill="#008060"></path>
        <path d="M13.1133 33.5326L13.4583 32.2449L14.7461 32.5899L14.401 33.8777L13.1133 33.5326Z" fill="#008060"></path>
        <path d="M15.3333 32.6667H16.6666V34.0001H15.3333V32.6667Z" fill="#008060"></path>
        <path d="M17.2637 32.5863L18.5518 32.241L18.8971 33.5291L17.609 33.8744L17.2637 32.5863Z" fill="#008060"></path>
        <path d="M19.0891 32.0173L20.2437 31.3506L20.9104 32.5052L19.7558 33.1719L19.0891 32.0173Z" fill="#008060"></path>
        <path d="M20.7136 30.9903L21.6567 30.0476L22.5994 30.9903L21.6567 31.9333L20.7136 30.9903Z" fill="#008060"></path>
        <path d="M22.0176 29.5777L22.6842 28.4231L23.8389 29.0894L23.1725 30.2444L22.0176 29.5777Z" fill="#008060"></path>
        <path d="M22.9104 27.8749L23.2555 26.5872L24.5435 26.9322L24.1982 28.22L22.9104 27.8749Z" fill="#008060"></path>
        <path d="M23.3333 24.6667H24.6666V26.0001H23.3333V24.6667Z" fill="#008060"></path>
        <path d="M22.9109 22.7911L24.199 22.446L24.544 23.7338L23.2559 24.0789L22.9109 22.7911Z" fill="#008060"></path>
        <path d="M22.0176 21.0892L23.1725 20.4229L23.8389 21.5775L22.6842 22.2441L22.0176 21.0892Z" fill="#008060"></path>
        <path d="M20.7139 19.6767L21.6566 18.7336L22.5996 19.6767L21.6566 20.6194L20.7139 19.6767Z" fill="#008060"></path>
        <path d="M19.0896 18.6497L19.7559 17.4951L20.9109 18.1615L20.2442 19.3164L19.0896 18.6497Z" fill="#008060"></path>
        <path d="M17.2542 18.0779L17.5992 16.7898L18.887 17.1352L18.5419 18.4229L17.2542 18.0779Z" fill="#008060"></path>
    </g>
    <defs>
        <clipPath id="clip0">
            <rect width="40" height="40" fill="white"></rect>
        </clipPath>
    </defs>
</svg>