<svg xmlns="http://www.w3.org/2000/svg" width="40" height="40" viewBox="0 0 40 40" fill="none">
    <g clip-path="url(#clip0)">
        <path d="M19.167 40H10.8337C4.50033 40 1.66699 34.5583 1.66699 29.1667C1.66699 21.4283 5.75033 13.415 11.3787 10.115C11.5053 10.04 11.652 10 11.8003 10H21.5337C21.682 10 21.827 10.04 21.9553 10.115C25.307 12.0783 28.1253 15.6283 29.892 20.1117C30.062 20.54 29.852 21.0233 29.4237 21.1933C28.997 21.3583 28.512 21.1517 28.3437 20.7233C26.7453 16.6717 24.2503 13.4667 21.3037 11.6667H12.032C6.98033 14.7567 3.33366 22.07 3.33366 29.1667C3.33366 33.395 5.29866 38.3333 10.8337 38.3333H19.167C19.627 38.3333 20.0003 38.7067 20.0003 39.1667C20.0003 39.6267 19.627 40 19.167 40Z" fill="#BDC1CC" />
        <path d="M22.4997 11.6665H10.833C9.45467 11.6665 8.33301 10.5448 8.33301 9.1665C8.33301 7.78817 9.45467 6.6665 10.833 6.6665H22.4997C23.878 6.6665 24.9997 7.78817 24.9997 9.1665C24.9997 10.5448 23.878 11.6665 22.4997 11.6665ZM10.833 8.33317C10.3747 8.33317 9.99967 8.7065 9.99967 9.1665C9.99967 9.6265 10.3747 9.99984 10.833 9.99984H22.4997C22.958 9.99984 23.333 9.6265 23.333 9.1665C23.333 8.7065 22.958 8.33317 22.4997 8.33317H10.833Z" fill="#BDC1CC" />
        <path d="M20.8339 8.33333C20.5905 8.33333 20.3472 8.22667 20.1822 8.02C19.8955 7.66 19.9522 7.13667 20.3122 6.84833L24.9339 3.15C25.3622 2.80667 25.2472 2.35333 25.2005 2.22333C25.1572 2.09333 24.9655 1.66667 24.4155 1.66667H8.91887C8.36887 1.66667 8.17721 2.09333 8.13221 2.22333C8.08721 2.355 7.97054 2.80833 8.39887 3.15L13.0205 6.84833C13.3805 7.13667 13.4372 7.66 13.1505 8.02C12.8622 8.38 12.3389 8.43667 11.9789 8.15L7.3572 4.45167C6.51554 3.78 6.20387 2.68833 6.56054 1.67167C6.9172 0.655 7.8422 0 8.91887 0H24.4172C25.4939 0 26.4189 0.656667 26.7755 1.67167C27.1322 2.68667 26.8189 3.77833 25.9772 4.45167L21.3555 8.15C21.2005 8.27333 21.0172 8.33333 20.8339 8.33333V8.33333Z" fill="#BDC1CC" />
        <path d="M25.0003 30.0002C23.162 30.0002 21.667 28.5052 21.667 26.6668C21.667 24.8285 23.162 23.3335 25.0003 23.3335C26.8387 23.3335 28.3337 24.8285 28.3337 26.6668C28.3337 28.5052 26.8387 30.0002 25.0003 30.0002ZM25.0003 25.0002C24.0803 25.0002 23.3337 25.7485 23.3337 26.6668C23.3337 27.5852 24.0803 28.3335 25.0003 28.3335C25.9203 28.3335 26.667 27.5852 26.667 26.6668C26.667 25.7485 25.9203 25.0002 25.0003 25.0002Z" fill="#BDC1CC" />
        <path d="M35.0003 40.0002C33.162 40.0002 31.667 38.5052 31.667 36.6668C31.667 34.8285 33.162 33.3335 35.0003 33.3335C36.8387 33.3335 38.3337 34.8285 38.3337 36.6668C38.3337 38.5052 36.8387 40.0002 35.0003 40.0002ZM35.0003 35.0002C34.0803 35.0002 33.3337 35.7485 33.3337 36.6668C33.3337 37.5852 34.0803 38.3335 35.0003 38.3335C35.9203 38.3335 36.667 37.5852 36.667 36.6668C36.667 35.7485 35.9203 35.0002 35.0003 35.0002Z" fill="#BDC1CC" />
        <path d="M24.1666 40.0001C23.9883 40.0001 23.8066 39.9434 23.6549 39.8251C23.2899 39.5434 23.2249 39.0201 23.5083 38.6551L35.1749 23.6551C35.4583 23.2917 35.9799 23.2251 36.3433 23.5101C36.7083 23.7917 36.7733 24.3151 36.4899 24.6801L24.8233 39.6801C24.6599 39.8901 24.4133 40.0001 24.1666 40.0001V40.0001Z" fill="#BDC1CC" />
    </g>
    <defs>
        <clipPath id="clip0">
            <rect width="40" height="40" fill="white"></rect>
        </clipPath>
    </defs>
</svg>
