<svg width="40" height="40" viewBox="0 0 40 40" fill="none" xmlns="http://www.w3.org/2000/svg">
<g clip-path="url(#clip0)">
<path d="M19.1668 40H10.8334C4.50008 40 1.66675 34.5583 1.66675 29.1667C1.66675 21.4283 5.75008 13.415 11.3784 10.115C11.5051 10.04 11.6517 10 11.8001 10H21.5334C21.6818 10 21.8268 10.04 21.9551 10.115C25.3068 12.0783 28.1251 15.6283 29.8918 20.1117C30.0618 20.54 29.8518 21.0233 29.4234 21.1933C28.9968 21.3583 28.5118 21.1517 28.3434 20.7233C26.7451 16.6717 24.2501 13.4667 21.3034 11.6667H12.0317C6.98008 14.7567 3.33342 22.07 3.33342 29.1667C3.33342 33.395 5.29842 38.3333 10.8334 38.3333H19.1668C19.6268 38.3333 20.0001 38.7067 20.0001 39.1667C20.0001 39.6267 19.6268 40 19.1668 40Z" fill="#008060"/>
<path d="M22.4999 11.6666H10.8333C9.45492 11.6666 8.33325 10.545 8.33325 9.16663C8.33325 7.78829 9.45492 6.66663 10.8333 6.66663H22.4999C23.8783 6.66663 24.9999 7.78829 24.9999 9.16663C24.9999 10.545 23.8783 11.6666 22.4999 11.6666ZM10.8333 8.33329C10.3749 8.33329 9.99992 8.70663 9.99992 9.16663C9.99992 9.62662 10.3749 9.99996 10.8333 9.99996H22.4999C22.9583 9.99996 23.3333 9.62662 23.3333 9.16663C23.3333 8.70663 22.9583 8.33329 22.4999 8.33329H10.8333Z" fill="#008060"/>
<path d="M20.8334 8.33333C20.5901 8.33333 20.3467 8.22667 20.1817 8.02C19.8951 7.66 19.9517 7.13667 20.3117 6.84833L24.9334 3.15C25.3617 2.80667 25.2467 2.35333 25.2001 2.22333C25.1567 2.09333 24.9651 1.66667 24.4151 1.66667H8.91838C8.36838 1.66667 8.17672 2.09333 8.13172 2.22333C8.08672 2.355 7.97005 2.80833 8.39838 3.15L13.02 6.84833C13.38 7.13667 13.4367 7.66 13.1501 8.02C12.8617 8.38 12.3384 8.43667 11.9784 8.15L7.35672 4.45167C6.51505 3.78 6.20338 2.68833 6.56005 1.67167C6.91672 0.655 7.84172 0 8.91838 0H24.4167C25.4934 0 26.4184 0.656667 26.7751 1.67167C27.1317 2.68667 26.8184 3.77833 25.9767 4.45167L21.3551 8.15C21.2001 8.27333 21.0167 8.33333 20.8334 8.33333Z" fill="#008060"/>
<path d="M25.0001 30C23.1617 30 21.6667 28.505 21.6667 26.6667C21.6667 24.8284 23.1617 23.3334 25.0001 23.3334C26.8384 23.3334 28.3334 24.8284 28.3334 26.6667C28.3334 28.505 26.8384 30 25.0001 30ZM25.0001 25C24.0801 25 23.3334 25.7484 23.3334 26.6667C23.3334 27.585 24.0801 28.3334 25.0001 28.3334C25.9201 28.3334 26.6667 27.585 26.6667 26.6667C26.6667 25.7484 25.9201 25 25.0001 25Z" fill="#008060"/>
<path d="M35.0001 40C33.1617 40 31.6667 38.505 31.6667 36.6667C31.6667 34.8284 33.1617 33.3334 35.0001 33.3334C36.8384 33.3334 38.3334 34.8284 38.3334 36.6667C38.3334 38.505 36.8384 40 35.0001 40ZM35.0001 35C34.0801 35 33.3334 35.7484 33.3334 36.6667C33.3334 37.585 34.0801 38.3334 35.0001 38.3334C35.9201 38.3334 36.6667 37.585 36.6667 36.6667C36.6667 35.7484 35.9201 35 35.0001 35Z" fill="#008060"/>
<path d="M24.1666 40C23.9883 40 23.8066 39.9433 23.6549 39.825C23.2899 39.5433 23.2249 39.02 23.5083 38.655L35.1749 23.655C35.4583 23.2916 35.9799 23.225 36.3433 23.51C36.7083 23.7916 36.7733 24.315 36.4899 24.68L24.8233 39.68C24.6599 39.89 24.4133 40 24.1666 40Z" fill="#008060"/>
</g>
<defs>
<clipPath id="clip0">
<rect width="40" height="40" fill="white"/>
</clipPath>
</defs>
</svg>
