<svg width="40" height="40" viewBox="0 0 40 40" fill="none"
     xmlns="http://www.w3.org/2000/svg">
    <g clip-path="url(#clip0)">
        <path d="M11.4062 21.5641C11.4062 21.9953 11.0565 22.3453 10.625 22.3453C10.1935 22.3453 9.84375 21.9953 9.84375 21.5641C9.84375 21.1326 10.1935 20.7828 10.625 20.7828C11.0565 20.7828 11.4062 21.1326 11.4062 21.5641Z" fill="#008060"></path>
        <path d="M2.68585 24.1375C3.75854 25.3222 3.71399 26.2676 3.64044 27.8341C3.61816 28.3038 3.59314 28.836 3.6026 29.4119C3.64837 32.2018 5.69365 32.6659 7.33702 33.0386C8.73502 33.3559 10.0558 33.6556 10.848 35.0368C12.2039 37.4428 13.3563 39.3636 16.0253 38.5085C16.9317 38.2177 17.5799 37.9427 18.1008 37.7218C18.8836 37.3897 19.3148 37.2066 19.9999 37.2066C20.6847 37.2066 21.1163 37.3897 21.899 37.7218C22.4203 37.9427 23.0685 38.218 23.9748 38.5085C25.2422 38.9147 26.2703 38.6934 27.1428 37.922C27.943 37.2143 28.5674 36.0579 29.1518 35.0368C29.9443 33.6556 31.2648 33.3559 32.6628 33.0386C34.3062 32.6659 36.3515 32.2018 36.3966 29.4119C36.4061 28.8357 36.3814 28.3032 36.3594 27.8335C36.2859 26.2673 36.2416 25.3219 37.3143 24.1375C38.9424 22.3397 40.002 21.2188 40.0001 19.9786C40.0023 18.6551 38.6986 17.3495 37.3143 15.8215C36.2416 14.6365 36.2859 13.6911 36.3594 12.1246C36.3814 11.655 36.4064 11.1225 36.3966 10.5466C36.3515 7.75699 34.3065 7.29282 32.6631 6.91989C31.2651 6.60251 29.9443 6.30283 29.1518 4.92131C28.5646 3.89623 27.9351 2.73717 27.1422 2.03588C26.2478 1.24517 25.2117 1.05383 23.9748 1.45025C23.0678 1.74108 22.4187 2.01605 21.8975 2.2373C21.115 2.56902 20.6841 2.75182 20.0005 2.75213C19.3154 2.75182 18.8848 2.56902 18.1024 2.2373C17.5811 2.01605 16.9323 1.74108 16.0253 1.45056C14.7885 1.05353 13.7524 1.24517 12.8579 2.03588C12.0578 2.74328 11.4328 3.9005 10.848 4.92131C10.0561 6.30192 8.68375 6.60221 7.23082 6.91989C5.53038 7.2919 3.414 7.75485 3.36822 10.5466C3.35693 11.2467 3.41339 11.8756 3.46374 12.4304C3.59283 13.8663 3.67096 14.733 2.68585 15.8215C1.08277 17.5912 -0.00425989 18.7347 1.25492e-05 19.9768C-0.00456507 21.2915 1.26191 22.5656 2.68585 24.1375ZM3.84399 16.8701C5.28838 15.2743 5.15777 13.8248 5.01983 12.2904C4.971 11.749 4.92034 11.189 4.93041 10.5719C4.95482 9.07961 5.7556 8.84188 7.56437 8.44638C9.12473 8.10489 11.0666 7.68039 12.2033 5.69889C13.352 3.83214 13.8678 2.39934 15.5483 2.93828C16.3876 3.20745 16.9744 3.45616 17.4923 3.67589C18.3334 4.03233 18.9974 4.31431 20.0002 4.31462C21.0018 4.31431 21.6662 4.03233 22.5072 3.67589C23.0251 3.45616 23.612 3.20745 24.4518 2.93828C26.1287 2.40087 26.6304 3.80437 27.7965 5.69889C28.9299 7.67459 30.8083 8.10092 32.3174 8.44363C34.0898 8.84585 34.8097 9.06924 34.8345 10.5722C34.843 11.099 34.8204 11.5833 34.7984 12.0517C34.7225 13.6743 34.6504 15.2072 36.1559 16.8704C37.3085 18.1427 38.4389 19.342 38.4373 19.9768V19.9807C38.4392 20.6665 37.0891 22.0587 36.1559 23.0886C34.6504 24.7509 34.7225 26.2838 34.7984 27.9064C34.8204 28.3749 34.843 28.8595 34.8345 29.3862C34.8097 30.8895 34.0895 31.1126 32.3171 31.5148C30.808 31.8572 28.9299 32.2836 27.7965 34.2596L27.6909 34.4433C26.3695 36.7516 25.8269 37.4608 24.4518 37.0208C23.6132 36.7516 23.0266 36.5029 22.5091 36.2835C21.6674 35.9264 21.0024 35.6441 19.9999 35.6441C18.9971 35.6441 18.3321 35.9261 17.4905 36.2835C16.9732 36.5029 16.3867 36.7516 15.5483 37.0205C13.8748 37.5567 13.3758 36.1648 12.2036 34.2593C11.0699 32.2836 9.19187 31.8572 7.68278 31.5148C5.91002 31.1126 5.1895 30.8895 5.16478 29.3862C5.15624 28.8598 5.17913 28.3758 5.2011 27.9077C5.2777 26.2844 5.34972 24.7512 3.84399 23.0886C2.79205 21.9275 1.56037 20.6357 1.56251 19.9768C1.56006 19.2926 2.9129 17.8982 3.84399 16.8701Z" fill="#008060"></path>
        <path d="M16.875 14.5328C15.5826 14.5328 14.5312 15.5842 14.5312 16.8766C14.5312 18.1687 15.5826 19.2203 16.875 19.2203C18.1674 19.2203 19.2188 18.1687 19.2188 16.8766C19.2188 15.5842 18.1674 14.5328 16.875 14.5328ZM16.875 17.6578C16.4441 17.6578 16.0938 17.3072 16.0938 16.8766C16.0938 16.4457 16.4441 16.0953 16.875 16.0953C17.3059 16.0953 17.6562 16.4457 17.6562 16.8766C17.6562 17.3072 17.3059 17.6578 16.875 17.6578Z" fill="#008060"></path>
        <path d="M20.7812 23.1266C20.7812 24.4187 21.8326 25.4703 23.125 25.4703C24.4174 25.4703 25.4688 24.4187 25.4688 23.1266C25.4688 21.8342 24.4174 20.7828 23.125 20.7828C21.8326 20.7828 20.7812 21.8342 20.7812 23.1266ZM23.9062 23.1266C23.9062 23.5572 23.5559 23.9078 23.125 23.9078C22.6941 23.9078 22.3438 23.5572 22.3438 23.1266C22.3438 22.6957 22.6941 22.3453 23.125 22.3453C23.5559 22.3453 23.9062 22.6957 23.9062 23.1266Z" fill="#008060"></path>
        <path d="M16.4417 25.3391C16.799 25.5771 17.2849 25.4828 17.525 25.1224L23.775 15.7474C24.0143 15.3882 23.9172 14.9033 23.5583 14.664C23.1992 14.4245 22.7142 14.5215 22.475 14.8807L16.225 24.2557C15.9857 24.6146 16.0828 25.0995 16.4417 25.3391Z" fill="#008060"></path>
        <path d="M19.9999 33.2827C27.3232 33.2827 33.2811 27.3248 33.2811 20.0015C33.2811 12.6783 27.3232 6.72034 19.9999 6.72034C12.6767 6.72034 6.71875 12.6783 6.71875 20.0015C6.71875 27.3248 12.6767 33.2827 19.9999 33.2827ZM19.9999 8.28283C26.4617 8.28283 31.7186 13.5398 31.7186 20.0015C31.7186 26.463 26.4617 31.7202 19.9999 31.7202C13.5382 31.7202 8.28124 26.463 8.28124 20.0015C8.28124 13.5398 13.5382 8.28283 19.9999 8.28283Z" fill="#008060"></path>
        <path d="M18.5672 11.5275C18.9926 11.4557 19.2794 11.0526 19.2077 10.6272C19.1363 10.2018 18.7335 9.91521 18.3078 9.98662C14.046 10.7041 10.701 14.0497 9.9844 18.3118C9.90444 18.7867 10.27 19.2228 10.7556 19.2228C11.13 19.2228 11.4608 18.9527 11.5252 18.5709C12.1313 14.965 14.9615 12.1344 18.5672 11.5275Z" fill="#008060"></path>
    </g>
    <defs>
        <clipPath id="clip0">
            <rect width="40" height="40" fill="white"></rect>
        </clipPath>
    </defs>
</svg>