<svg xmlns="http://www.w3.org/2000/svg" id="Capa_1" width="40" height="40" viewBox="0 0 40 40" fill="none">
    <g clip-path="url(#clip0)">
        <path d="M39.7395 27.2981C39.2661 26.4194 38.4799 25.7791 37.5257 25.4948C37.1749 25.3903 36.8168 25.3391 36.4607 25.3392L36.355 25.1354C36.3535 25.1327 36.3521 25.13 36.3506 25.1273C35.8773 24.2487 35.0912 23.6083 34.137 23.3241C33.8455 23.2372 33.5491 23.1873 33.2529 23.1728V12.9086H33.2638C34.2282 12.9086 35.0129 12.1235 35.0129 11.1585V7.62175C35.0129 6.65668 34.2282 5.87159 33.2638 5.87159H32.9276L32.7884 3.77325C32.6641 1.90224 31.2287 0.345421 29.3753 0.0716166C27.1194 -0.261558 24.8865 0.584854 23.4207 2.29572C23.0372 2.07996 22.5955 1.9563 22.1251 1.9563H20.3756C19.9053 1.9563 19.4635 2.07996 19.08 2.29564C17.6143 0.584854 15.382 -0.261949 13.1254 0.0716166C12.7816 0.122393 12.446 0.217463 12.128 0.354249C11.8306 0.48205 11.6934 0.826708 11.8212 1.12395C11.9489 1.42119 12.2933 1.55852 12.5909 1.43064C12.8157 1.33401 13.0531 1.26675 13.2967 1.23074C15.16 0.955369 17.0052 1.65968 18.2098 3.08065C17.9033 3.51366 17.7225 4.04167 17.7225 4.61146V5.87151H10.7474L10.8815 3.8509C10.899 3.58788 10.9524 3.32962 11.0405 3.08323C11.1493 2.77849 10.9905 2.44329 10.6857 2.33447C10.3811 2.22557 10.0458 2.38439 9.93689 2.6892C9.81253 3.03746 9.73691 3.40219 9.7123 3.77325L9.57302 5.87151H9.23687C8.27242 5.87151 7.4878 6.65668 7.4878 7.62167V11.1583C7.4878 12.1234 8.27242 12.9085 9.23687 12.9085H9.24773V23.2859C8.13142 23.5915 7.22689 24.0653 6.56413 24.5301V24.3185C6.56413 23.5648 5.95083 22.9514 5.19706 22.9514H1.36927C0.615504 22.9514 0.00219727 23.5648 0.00219727 24.3185V30.6961C0.00219727 31.0197 0.26444 31.282 0.588084 31.282C0.911728 31.282 1.17397 31.0197 1.17397 30.6961V24.3185C1.17397 24.2109 1.26154 24.1232 1.36927 24.1232H5.19706C5.30479 24.1232 5.39236 24.2109 5.39236 24.3185V25.8187V25.8201V37.5564C5.39236 37.664 5.30479 37.7517 5.19706 37.7517H1.36927C1.26154 37.7517 1.17397 37.664 1.17397 37.5564V33.4472C1.17397 33.1236 0.911728 32.8613 0.588084 32.8613C0.26444 32.8613 0.00219727 33.1236 0.00219727 33.4472V37.5564C0.00219727 38.3101 0.615504 38.9234 1.36927 38.9234H5.19706C5.95083 38.9234 6.56413 38.3101 6.56413 37.5564V36.3558L13.7174 39.189C15.0861 39.7311 16.5228 39.9999 17.9552 39.9999C19.8474 39.9999 21.732 39.5307 23.4411 38.6025L29.2936 35.4244C29.5779 35.2699 29.6832 34.9142 29.5289 34.6299C29.3744 34.3455 29.0187 34.2402 28.7344 34.3946L22.8819 37.5728C20.1849 39.0375 17.0018 39.2295 14.1489 38.0995L6.56413 35.0953V26.0449C7.35539 25.2215 9.26718 24.1233 11.7702 24.1233C14.036 24.1233 15.4977 24.3198 16.5096 24.7602C16.839 24.9035 17.3877 25.1765 18.0281 25.5066C18.0294 25.5072 18.0306 25.5079 18.0318 25.5085C19.9856 26.5157 22.7897 28.0537 22.827 28.0743C22.8303 28.0761 22.8335 28.0778 22.8369 28.0796C24.0781 28.7304 24.5595 30.2724 23.91 31.517C23.7889 31.749 23.585 31.9198 23.3357 31.9979C23.0875 32.0757 22.8235 32.0519 22.5928 31.931L14.8361 27.8638C14.5497 27.7135 14.1954 27.8241 14.0451 28.1106C13.8949 28.3971 14.0054 28.7513 14.292 28.9016L22.0487 32.9687C22.3607 33.1323 22.7001 33.2152 23.0424 33.2152C23.2579 33.2152 23.4744 33.1824 23.6859 33.1161C23.8334 33.07 23.9733 33.0086 24.1048 32.9342L35.2557 26.8203C35.8529 26.4959 36.5402 26.424 37.1912 26.6179C37.8447 26.8125 38.3834 27.2515 38.7079 27.8539C38.9664 28.3336 38.7885 28.9346 38.3115 29.1937L31.1048 33.1073C30.8205 33.2617 30.7152 33.6174 30.8695 33.9018C30.9757 34.0973 31.1771 34.2081 31.385 34.2081C31.4794 34.2081 31.5753 34.1852 31.664 34.137L38.8707 30.2233C39.9136 29.657 40.3033 28.3447 39.7395 27.2981V27.2981ZM33.8411 7.62175V11.1584C33.8411 11.4774 33.5821 11.7368 33.2638 11.7368H30.1352C29.8116 11.7368 29.5493 11.9991 29.5493 12.3227C29.5493 12.6462 29.8116 12.9086 30.1352 12.9086H32.0812V23.3061C31.8155 23.3809 31.5559 23.4849 31.3072 23.6199L24.7782 27.1715V12.9086H27.4011C27.7247 12.9086 27.987 12.6463 27.987 12.3228C27.987 11.9992 27.7247 11.7369 27.4011 11.7369H24.7782V7.04336H33.2638C33.582 7.04336 33.8411 7.30287 33.8411 7.62175V7.62175ZM18.8942 7.04336H23.6064V11.7369H18.8942V7.04336ZM29.2039 1.23081C30.5154 1.42455 31.5312 2.52648 31.6192 3.8509L31.7533 5.87159H24.7781V4.61154C24.7781 4.04174 24.5973 3.51374 24.2908 3.08073C25.4953 1.65968 27.3401 0.955291 29.2039 1.23081V1.23081ZM22.1251 3.12807C22.9419 3.12807 23.6064 3.79356 23.6064 4.61154V5.87159H18.8942V4.61154C18.8942 3.79356 19.5587 3.12807 20.3755 3.12807H22.1251ZM8.6595 11.1584V7.62175C8.6595 7.30279 8.91846 7.04336 9.23679 7.04336H17.7224V11.7369H9.23679C8.91846 11.7369 8.6595 11.4774 8.6595 11.1584V11.1584ZM11.7701 22.9515C11.2971 22.9515 10.8469 22.986 10.4193 23.0459V12.9086H17.7223V24.0385C17.4228 23.8902 17.1673 23.7686 16.9771 23.6858C15.7947 23.1711 14.2375 22.9515 11.7701 22.9515ZM18.8942 24.6355V12.9086H23.6064V27.1715C23.5346 27.1273 23.4617 27.0843 23.386 27.0445C23.1995 26.9422 20.7879 25.62 18.8942 24.6355V24.6355ZM25.3227 30.9302C25.4605 30.0726 25.291 29.198 24.8619 28.46L31.867 24.6495C32.1377 24.5025 32.4271 24.4078 32.7231 24.3658C32.7289 24.3652 32.7346 24.3643 32.7403 24.3635C33.0919 24.3161 33.4524 24.3427 33.8026 24.447C34.4065 24.6269 34.912 25.0158 35.2414 25.5492C35.0548 25.615 34.8719 25.6954 34.6944 25.7917L25.3227 30.9302Z" fill="#008060" />
        <path d="M3.08567 9.95853L4.40766 9.98704C4.41204 9.98712 4.41625 9.9872 4.42055 9.9872C4.73818 9.9872 4.99917 9.73316 5.00605 9.41396C5.01308 9.09047 4.75646 8.82261 4.43297 8.81558L3.11098 8.78706C2.78468 8.7787 2.51954 9.03673 2.51259 9.36014C2.50564 9.68371 2.76226 9.95157 3.08567 9.95853V9.95853Z" fill="#008060" />
        <path d="M3.66112 6.89392L4.79181 7.58034C4.8868 7.63799 4.99171 7.66549 5.0953 7.66549C5.29325 7.66549 5.48644 7.56511 5.59666 7.38356C5.76454 7.10695 5.67642 6.74659 5.3998 6.57871L4.26912 5.89228C3.99266 5.72433 3.63222 5.81252 3.46427 6.08906C3.29639 6.36568 3.38451 6.72604 3.66112 6.89392V6.89392Z" fill="#008060" />
        <path d="M4.71292 11.2367L3.55381 11.8736C3.27024 12.0295 3.16673 12.3857 3.3225 12.6693C3.42913 12.8633 3.62966 12.9732 3.83652 12.9732C3.9319 12.9732 4.02861 12.9498 4.11813 12.9006L5.27725 12.2636C5.56082 12.1078 5.66433 11.7515 5.50856 11.468C5.35271 11.1844 4.99665 11.0807 4.71292 11.2367V11.2367Z" fill="#008060" />
        <path d="M37.4943 9.41399C37.5012 9.73318 37.7621 9.98722 38.0798 9.98722C38.0841 9.98722 38.0883 9.98722 38.0927 9.98707L39.4147 9.95856C39.7382 9.9516 39.9948 9.68366 39.9878 9.36017C39.9807 9.03668 39.7146 8.77811 39.3894 8.78709L38.0674 8.81561C37.7439 8.82264 37.4873 9.0905 37.4943 9.41399Z" fill="#008060" />
        <path d="M37.4051 7.66553C37.5087 7.66553 37.6136 7.63803 37.7086 7.58038L38.8393 6.89395C39.1159 6.72608 39.204 6.36572 39.0361 6.0891C38.8682 5.8124 38.5077 5.72437 38.2313 5.89232L37.1006 6.57874C36.824 6.74662 36.7358 7.10698 36.9037 7.3836C37.0139 7.56514 37.2071 7.66553 37.4051 7.66553V7.66553Z" fill="#008060" />
        <path d="M37.7876 11.2366C37.5041 11.0807 37.1479 11.1843 36.9919 11.468C36.8362 11.7515 36.9397 12.1077 37.2232 12.2636L38.3824 12.9006C38.4719 12.9498 38.5686 12.9731 38.664 12.9731C38.8708 12.9731 39.0714 12.8634 39.178 12.6693C39.3338 12.3857 39.2303 12.0295 38.9467 11.8736L37.7876 11.2366Z" fill="#008060" />
    </g>
    <defs>
        <clipPath id="clip0">
            <rect width="40" height="40" fill="white"></rect>
        </clipPath>
    </defs>
</svg>