<svg xmlns="http://www.w3.org/2000/svg" width="40" height="40" viewBox="0 0 40 40" fill="none">
    <path d="M39.1666 21.6673C39.6272 21.6673 40 21.2945 40 20.8339V16.6671C40 14.8287 38.505 13.3336 36.6665 13.3336H30.3938C30.1545 12.8035 29.9996 12.2506 29.9996 11.6669C29.9996 10.1581 30.8371 8.76319 32.1855 8.02668C32.3816 7.91925 32.5273 7.73698 32.5876 7.52127C32.6486 7.30642 32.6202 7.07532 32.5094 6.88078L30.4789 3.33411C30.0354 2.56096 29.3192 2.00836 28.4622 1.7789C27.6093 1.55101 26.7174 1.6707 25.954 2.11501L1.65161 16.2634C0.0743734 17.1814 -0.468378 19.2209 0.440635 20.8079L2.54031 24.4782C2.6518 24.6735 2.83735 24.8152 3.05462 24.8713C3.27111 24.9274 3.50221 24.8941 3.69433 24.7785C4.36654 24.3731 5.08601 24.1673 5.83229 24.1673C7.65141 24.1673 9.24052 25.3657 9.78147 27.0994C9.242 28.776 7.68578 30.0008 5.83229 30.0008C5.37165 30.0008 4.9989 30.3735 4.9989 30.8342V35.001C4.9989 36.8394 6.49387 38.3344 8.33237 38.3344H36.6666C38.505 38.3344 40.0001 36.8395 40.0001 35.001V30.8342C40.0001 30.3735 39.6273 30.0008 39.1667 30.0008C36.8693 30.0008 34.9999 28.1314 34.9999 25.834C34.9998 23.5366 36.8692 21.6673 39.1666 21.6673ZM26.7932 3.55552C27.17 3.33575 27.6127 3.27473 28.031 3.38872C28.4567 3.50263 28.8115 3.77772 29.0321 4.16265L30.6703 7.02407C29.2111 8.11863 28.333 9.83181 28.333 11.6669C28.333 12.2321 28.426 12.7925 28.5907 13.3336H9.99679L26.7932 3.55552ZM5.83221 22.5006C5.06969 22.5006 4.30872 22.6585 3.59339 22.9629L1.88763 19.9803C1.43106 19.1843 1.70208 18.163 2.48984 17.704L5.04445 16.2169C5.02414 16.3656 4.9989 16.513 4.9989 16.6672V20.834C4.9989 21.2946 5.37165 21.6673 5.83229 21.6673C7.36562 21.6673 8.69347 22.5093 9.41701 23.7462C8.41909 22.9611 7.16897 22.5006 5.83221 22.5006ZM33.3331 25.834C33.3331 28.7679 35.5101 31.2029 38.3332 31.6081V35.001C38.3332 35.9197 37.5853 36.6677 36.6665 36.6677H16.6659V35.2092C16.6659 34.7486 16.2932 34.3759 15.8325 34.3759C15.3719 34.3759 14.9991 34.7486 14.9991 35.2092V36.6677H8.33229C7.41351 36.6677 6.6656 35.9197 6.6656 35.001V31.6081C9.48873 31.2028 11.6658 28.7679 11.6658 25.834C11.6658 22.9002 9.48873 20.4652 6.6656 20.0599V16.6671C6.6656 15.7483 7.41351 15.0004 8.33229 15.0004H14.9991V16.8755C14.9991 17.3361 15.3719 17.7089 15.8325 17.7089C16.2932 17.7089 16.6659 17.3361 16.6659 16.8755V15.0004H36.6665C37.5853 15.0004 38.3332 15.7483 38.3332 16.6671V20.0599C35.5101 20.4652 33.3331 22.9002 33.3331 25.834Z" fill="#BDC1CC" />
    <path d="M15.8324 21.043C15.3718 21.043 14.999 21.4157 14.999 21.8764V23.543C14.999 24.0037 15.3718 24.3764 15.8324 24.3764C16.293 24.3764 16.6658 24.0037 16.6658 23.543V21.8764C16.6658 21.4157 16.293 21.043 15.8324 21.043Z" fill="#BDC1CC" />
    <path d="M15.8324 27.709C15.3718 27.709 14.999 28.0817 14.999 28.5424V30.2091C14.999 30.6697 15.3718 31.0424 15.8324 31.0424C16.293 31.0424 16.6658 30.6697 16.6658 30.2091V28.5424C16.6658 28.0817 16.293 27.709 15.8324 27.709Z" fill="#BDC1CC" />
    <path d="M31.3326 18.5017C30.9656 18.2274 30.4423 18.3007 30.1664 18.6685L20.1661 32.0023C19.8893 32.3701 19.9643 32.8926 20.3329 33.1685C20.4826 33.2808 20.6576 33.3353 20.8317 33.3353C21.0856 33.3353 21.3355 33.2205 21.4991 33.0016L31.4994 19.6678C31.7761 19.3 31.7013 18.7775 31.3326 18.5017Z" fill="#BDC1CC" />
    <path d="M22.4996 25.0009C23.9018 25.0009 24.9997 23.5368 24.9997 21.6675C24.9997 19.7981 23.9018 18.334 22.4996 18.334C21.0974 18.334 19.9995 19.7981 19.9995 21.6675C19.9995 23.5368 21.0974 25.0009 22.4996 25.0009ZM22.4996 20.0008C22.8397 20.0008 23.333 20.6502 23.333 21.6675C23.333 22.6848 22.8397 23.3342 22.4996 23.3342C22.1594 23.3342 21.6662 22.6847 21.6662 21.6675C21.6662 20.6502 22.1594 20.0008 22.4996 20.0008Z" fill="#BDC1CC" />
    <path d="M29.1661 26.668C27.7639 26.668 26.666 28.1321 26.666 30.0014C26.666 31.8708 27.7639 33.3349 29.1661 33.3349C30.5683 33.3349 31.6662 31.8708 31.6662 30.0014C31.6662 28.1321 30.5683 26.668 29.1661 26.668ZM29.1661 31.6681C28.8259 31.6681 28.3327 31.0187 28.3327 30.0014C28.3327 28.9842 28.8259 28.3347 29.1661 28.3347C29.5063 28.3347 29.9995 28.9842 29.9995 30.0014C29.9995 31.0187 29.5063 31.6681 29.1661 31.6681Z" fill="#BDC1CC" />
</svg>