<svg width="40" height="40" viewBox="0 0 40 40" fill="none"
     xmlns="http://www.w3.org/2000/svg">
    <g clip-path="url(#clip0)">
        <path d="M39.2454 6.07923L39.772 5.55259C40.0771 5.24752 40.0771 4.75283 39.772 4.44768C39.4669 4.14269 38.9722 4.14269 38.6671 4.44768L38.1404 4.97432L37.6141 4.44799C37.4676 4.30151 37.2689 4.21917 37.0617 4.21917H36.2024L32.2121 0.228825C32.0655 0.0823428 31.8668 0 31.6597 0H2.81454C1.26315 0 0.000976562 1.26209 0.000976562 2.81356V17.4541C0.000976562 19.0055 1.26315 20.2677 2.81454 20.2677H9.62071L5.04381 24.8446C4.51241 25.376 4.21975 26.0826 4.21975 26.8341C4.21975 27.5856 4.51241 28.2922 5.04381 28.8236L15.3962 39.176C15.9276 39.7074 16.6341 40.0001 17.3857 40.0001C18.1372 40.0001 18.8438 39.7074 19.3752 39.176L27.1288 31.4225C27.4339 31.1174 27.4339 30.6228 27.1288 30.3176C26.8237 30.0127 26.329 30.0126 26.0239 30.3176L18.2703 38.0711C18.034 38.3074 17.7198 38.4375 17.3857 38.4375C17.0516 38.4375 16.7373 38.3074 16.5011 38.0711L6.14864 27.7187C5.91239 27.4825 5.78224 27.1683 5.78224 26.8341C5.78224 26.4999 5.91239 26.1858 6.14864 25.9495L26.3164 5.78181H36.7382L37.0357 6.0793L35.2292 7.88584C34.9231 7.73913 34.5807 7.65686 34.2193 7.65686C32.927 7.65686 31.8756 8.70826 31.8756 10.0006C31.8756 11.2929 32.927 12.3443 34.2193 12.3443C35.5117 12.3443 36.563 11.2929 36.563 10.0006C36.563 9.63918 36.4807 9.29669 36.334 8.99075L38.1405 7.18421L38.438 7.48171V17.9035L30.9956 25.346C30.6905 25.651 30.6905 26.1457 30.9956 26.4509C31.3007 26.7559 31.7954 26.7559 32.1005 26.4509L39.7718 18.7796C39.9182 18.6331 40.0006 18.4344 40.0006 18.2272V7.15796C40.0006 6.95078 39.9182 6.75211 39.7718 6.60555L39.2454 6.07923ZM14.0304 14.0182C13.5995 14.0182 13.2489 13.6677 13.2489 13.2367C13.2489 12.8057 13.5995 12.4552 14.0304 12.4552C14.4614 12.4552 14.8119 12.8057 14.8119 13.2367C14.8119 13.6676 14.4614 14.0182 14.0304 14.0182ZM25.9928 4.21925C25.7856 4.21925 25.5868 4.30159 25.4404 4.44807L16.355 13.5334C16.3673 13.4361 16.3745 13.3372 16.3745 13.2366C16.3745 11.9442 15.323 10.8926 14.0305 10.8926C12.7381 10.8926 11.6865 11.9442 11.6865 13.2366C11.6865 14.5291 12.738 15.5806 14.0305 15.5806C14.131 15.5806 14.2299 15.5735 14.3272 15.5611L11.1833 18.7051H2.81454C2.1247 18.7051 1.56346 18.1438 1.56346 17.454V2.81356C1.56346 2.12372 2.1247 1.56248 2.81454 1.56248H31.336L33.9928 4.21925H25.9928ZM34.2193 10.7817C33.7885 10.7817 33.4381 10.4312 33.4381 10.0004C33.4381 9.56965 33.7885 9.21919 34.2193 9.21919C34.3976 9.21919 34.5617 9.27989 34.6933 9.38083C34.714 9.40786 34.736 9.43426 34.7607 9.45895C34.7854 9.48364 34.8118 9.50567 34.8388 9.52637C34.9398 9.65801 35.0005 9.82207 35.0005 10.0003C35.0006 10.4312 34.6501 10.7817 34.2193 10.7817Z" fill="#BDC1CC"></path>
        <path d="M25.9841 23.1119C26.1913 23.1119 26.39 23.0296 26.5365 22.8831L28.3042 21.1153C28.6093 20.8102 28.6093 20.3156 28.3042 20.0104C27.9991 19.7054 27.5045 19.7054 27.1994 20.0104L25.9841 21.2258L22.1171 17.3589C21.8121 17.0539 21.3173 17.0539 21.0123 17.3589C20.7072 17.6639 20.7072 18.1586 21.0123 18.4638L25.4317 22.8831C25.5782 23.0296 25.777 23.1119 25.9841 23.1119Z" fill="#BDC1CC"></path>
        <path d="M32.0607 16.254C31.7556 15.949 31.2609 15.949 30.9558 16.254L29.9614 17.2483L28.8566 16.1436L29.8509 15.1492C30.156 14.8441 30.156 14.3494 29.8509 14.0443C29.5458 13.7393 29.0512 13.7393 28.746 14.0443L27.7516 15.0387L26.6468 13.9338L27.6412 12.9395C27.9463 12.6344 27.9463 12.1397 27.6412 11.8346C27.3361 11.5296 26.8414 11.5296 26.5363 11.8346L24.9896 13.3813C24.8431 13.5278 24.7607 13.7266 24.7607 13.9337C24.7607 14.1409 24.8431 14.3396 24.9896 14.4862L29.409 18.9055C29.5615 19.058 29.7615 19.1343 29.9614 19.1343C30.1613 19.1343 30.3613 19.058 30.5138 18.9055L32.0606 17.3587C32.3657 17.0537 32.3657 16.559 32.0607 16.254Z" fill="#BDC1CC"></path>
        <path d="M23.4197 25.2364C23.804 25.4324 24.2746 25.2794 24.4705 24.895C24.6664 24.5105 24.5135 24.0401 24.1289 23.8443L18.2733 20.8612C17.9718 20.7075 17.6056 20.7655 17.3663 21.0048C17.127 21.2441 17.069 21.6104 17.2226 21.9119L20.2057 27.7675C20.3437 28.0384 20.6179 28.1944 20.9024 28.1943C21.0217 28.1943 21.1429 28.1669 21.2564 28.109C21.6408 27.9131 21.7937 27.4427 21.598 27.0583L21.3584 26.588L22.9496 24.9968L23.4197 25.2364ZM20.6126 25.1242L19.706 23.3446L21.4857 24.2512L20.6126 25.1242Z" fill="#BDC1CC"></path>
        <path d="M15.9299 31.2797C15.6248 31.5848 15.6247 32.0795 15.9299 32.3846C16.0824 32.5371 16.2824 32.6135 16.4823 32.6135C16.6822 32.6135 16.8822 32.5371 17.0347 32.3846L18.1396 31.2798C19.0534 30.366 19.0534 28.8791 18.1396 27.9652C17.271 27.0967 15.8852 27.0543 14.9653 27.8368C14.9367 27.8584 14.9089 27.8814 14.8828 27.9075L14.825 27.9652C14.6775 28.1128 14.4813 28.1941 14.2726 28.1941C14.064 28.1941 13.8678 28.1128 13.7202 27.9652C13.4156 27.6606 13.4156 27.165 13.7202 26.8603L14.825 25.7555C15.1301 25.4504 15.1302 24.9557 14.825 24.6506C14.52 24.3457 14.0253 24.3456 13.7202 24.6506L12.6153 25.7554C11.7015 26.6692 11.7015 28.1562 12.6153 29.0701C13.058 29.5127 13.6465 29.7565 14.2725 29.7565C14.8977 29.7565 15.4855 29.5134 15.9281 29.0716C15.9287 29.0711 15.9293 29.0706 15.9299 29.0701C16.2344 28.7654 16.7301 28.7654 17.0347 29.0701C17.1823 29.2176 17.2635 29.4137 17.2635 29.6224C17.2635 29.8312 17.1823 30.0273 17.0347 30.1748L15.9299 31.2797Z" fill="#BDC1CC"></path>
        <path d="M13.3856 5.04354C13.0099 4.83151 12.5333 4.96401 12.3212 5.33979L7.28222 14.2658C7.07012 14.6416 7.20269 15.118 7.57847 15.3301C7.69987 15.3987 7.83167 15.4312 7.96182 15.4312C8.23448 15.4312 8.49924 15.2883 8.64283 15.0339L13.6818 6.1079C13.8939 5.73213 13.7614 5.25557 13.3856 5.04354Z" fill="#BDC1CC"></path>
        <path d="M9.77936 7.03112C9.77936 5.73862 8.72787 4.68713 7.43537 4.68713C6.14287 4.68713 5.09131 5.73862 5.09131 7.03112C5.09131 8.32362 6.14279 9.37518 7.43529 9.37518C8.72779 9.37518 9.77936 8.32362 9.77936 7.03112ZM6.65381 7.03112C6.65381 6.60018 7.00435 6.24963 7.43529 6.24963C7.86623 6.24963 8.21678 6.60018 8.21678 7.03112C8.21678 7.46213 7.86623 7.81268 7.43529 7.81268C7.00435 7.81268 6.65381 7.46213 6.65381 7.03112Z" fill="#BDC1CC"></path>
        <path d="M29.0615 27.6027C28.8553 27.6027 28.6545 27.6863 28.5092 27.8316C28.3639 27.9769 28.2803 28.1784 28.2803 28.3839C28.2803 28.5895 28.3639 28.791 28.5092 28.9363C28.6545 29.0816 28.8553 29.1652 29.0615 29.1652C29.267 29.1652 29.4686 29.0816 29.6139 28.9363C29.7592 28.791 29.8428 28.5895 29.8428 28.3839C29.8428 28.1784 29.7592 27.9769 29.6139 27.8316C29.4686 27.6863 29.267 27.6027 29.0615 27.6027Z" fill="#BDC1CC"></path>
    </g>
    <defs>
        <clipPath id="clip0">
            <rect width="40" height="40" fill="white"></rect>
        </clipPath>
    </defs>
</svg>