<svg width="40" height="40" viewBox="0 0 40 40" fill="none" id="Capa_2"
     xmlns="http://www.w3.org/2000/svg">
    <g clip-path="url(#clip0)">
        <path d="M36.0903 27.06L39.8682 14.0121C40.1578 13.0118 39.9651 11.9607 39.3395 11.1282C38.8749 10.51 38.2278 10.0882 37.4992 9.91168V5.52168C37.4992 5.09029 37.1494 4.74045 36.718 4.74045H31.5878V0.782089C31.5878 0.350691 31.238 0.000854492 30.8066 0.000854492H17.4593C17.0279 0.000854492 16.6781 0.350691 16.6781 0.782089V3.12579H9.90871C9.47724 3.12579 9.12748 3.47563 9.12748 3.90703V5.59848C8.46851 4.32452 7.14759 3.49227 5.66044 3.49227H2.6562C1.19154 3.49227 0 4.68381 0 6.14847C0 7.61313 1.19154 8.80467 2.6562 8.80467H4.55772L9.98605 30.9059C10.4162 32.6572 11.9761 33.8803 13.7795 33.8803H13.8598C13.3882 34.5183 13.1087 35.3064 13.1087 36.1589C13.1087 38.2768 14.8317 40 16.9497 40C19.0677 40 20.7908 38.2768 20.7908 36.1589C20.7908 35.3064 20.5113 34.5183 20.0397 33.8803H26.0869C25.6152 34.5183 25.3358 35.3064 25.3358 36.1589C25.3358 38.2768 27.0589 40 29.1769 40C31.2948 40 33.0179 38.2768 33.0179 36.1589C33.0179 35.3064 32.7383 34.5183 32.2667 33.8803H33.5931C35.0578 33.8803 36.2493 32.6888 36.2493 31.2241C36.2493 30.2542 35.7265 29.4045 34.9481 28.9408C35.4763 28.4352 35.8783 27.7924 36.0903 27.06ZM35.9368 6.30292V9.8184H31.5879V6.30292H35.9368ZM18.2406 1.56332H30.0254V9.8184H28.0661C27.6347 9.8184 27.2849 10.1682 27.2849 10.5996C27.2849 11.031 27.6347 11.3809 28.0661 11.3809H36.7165C37.2619 11.3809 37.7627 11.6309 38.0904 12.0669C38.4181 12.503 38.519 13.0536 38.3674 13.5775L34.5895 26.6255C34.2584 27.7693 33.1954 28.568 32.0048 28.568H14.8821L10.6607 11.3809H21.035C21.4664 11.3809 21.8162 11.031 21.8162 10.5996C21.8162 10.1682 21.4664 9.8184 21.035 9.8184H19.8132V3.90703C19.8132 3.47563 19.4634 3.12579 19.032 3.12579H18.2406V1.56332ZM10.6899 4.68826H18.2507V9.8184H10.6899V4.68826ZM19.2283 36.159C19.2283 37.4154 18.2061 38.4376 16.9497 38.4376C15.6932 38.4376 14.671 37.4154 14.671 36.159C14.671 34.9026 15.6932 33.8804 16.9497 33.8804C18.2061 33.8804 19.2283 34.9026 19.2283 36.159ZM31.4553 36.159C31.4553 37.4154 30.4332 38.4376 29.1768 38.4376C27.9203 38.4376 26.8981 37.4154 26.8981 36.159C26.8981 34.9026 27.9203 33.8804 29.1768 33.8804C30.4332 33.8804 31.4553 34.9026 31.4553 36.159ZM33.5931 30.1305C34.1962 30.1305 34.6868 30.6211 34.6868 31.2242C34.6868 31.8273 34.1962 32.318 33.5931 32.318H13.7795C12.6975 32.318 11.7615 31.5841 11.5034 30.5333L5.92902 7.83719C5.84325 7.48782 5.53005 7.24228 5.17037 7.24228H2.6562C2.05308 7.24228 1.56247 6.75166 1.56247 6.14855C1.56247 5.54543 2.05308 5.05482 2.6562 5.05482H5.66036C6.74237 5.05482 7.67837 5.78871 7.93641 6.83947L13.5108 29.5357C13.5966 29.885 13.9098 30.1306 14.2695 30.1306H33.5931V30.1305Z" fill="#008060"></path>
        <path d="M22.06 25.1258C22.1699 25.1793 22.2862 25.2045 22.4007 25.2045C22.6905 25.2045 22.9689 25.0426 23.104 24.7644L27.4027 15.9125C27.5912 15.5244 27.4294 15.057 27.0412 14.8685C26.6533 14.6802 26.1856 14.8418 25.9972 15.23L21.6985 24.0819C21.51 24.47 21.6719 24.9374 22.06 25.1258Z" fill="#008060"></path>
        <path d="M18.2507 16.1977C18.2507 17.5765 19.3724 18.6981 20.7511 18.6981C22.1298 18.6981 23.2515 17.5765 23.2515 16.1977C23.2515 14.8191 22.1299 13.6974 20.7511 13.6974C19.3724 13.6974 18.2507 14.8191 18.2507 16.1977ZM21.689 16.1977C21.689 16.7149 21.2682 17.1357 20.7511 17.1357C20.234 17.1357 19.8132 16.7149 19.8132 16.1977C19.8132 15.6806 20.234 15.2599 20.7511 15.2599C21.2682 15.2599 21.689 15.6806 21.689 16.1977Z" fill="#008060"></path>
        <path d="M25.875 23.8222C25.875 25.2008 26.9966 26.3225 28.3753 26.3225C29.7541 26.3225 30.8758 25.2009 30.8758 23.8222C30.8758 22.4435 29.7541 21.3218 28.3753 21.3218C26.9966 21.3218 25.875 22.4434 25.875 23.8222ZM28.3753 22.8842C28.8925 22.8842 29.3133 23.305 29.3133 23.8222C29.3133 24.3393 28.8925 24.7601 28.3753 24.7601C27.8582 24.7601 27.4375 24.3393 27.4375 23.8222C27.4375 23.305 27.8582 22.8842 28.3753 22.8842Z" fill="#008060"></path>
        <path d="M24.5503 11.3806C24.7565 11.3806 24.9573 11.297 25.1026 11.1517C25.2487 11.0064 25.3315 10.8048 25.3315 10.5994C25.3315 10.3931 25.2487 10.1923 25.1026 10.047C24.9573 9.90093 24.7565 9.81812 24.5503 9.81812C24.3448 9.81812 24.1433 9.90093 23.9979 10.047C23.8526 10.1916 23.769 10.3932 23.769 10.5994C23.769 10.8048 23.8526 11.0064 23.9979 11.1517C24.1433 11.297 24.3448 11.3806 24.5503 11.3806Z" fill="#008060"></path>
    </g>
    <defs>
        <clipPath id="clip0">
            <rect width="40" height="40" fill="white"></rect>
        </clipPath>
    </defs>
</svg>